<svg width="40" height="40" viewBox="0 0 40 40" fill="none" xmlns="http://www.w3.org/2000/svg">
<circle cx="20" cy="20" r="20" fill="#EFEFF1"/>
<path d="M19.9992 19.9992C18.8323 19.9992 17.7131 19.5356 16.8879 18.7105C16.0628 17.8853 15.5992 16.7662 15.5992 15.5992C15.5992 14.4323 16.0628 13.3131 16.8879 12.4879C17.7131 11.6628 18.8323 11.1992 19.9992 11.1992C21.1662 11.1992 22.2853 11.6628 23.1105 12.4879C23.9356 13.3131 24.3992 14.4323 24.3992 15.5992C24.3992 16.7662 23.9356 17.8853 23.1105 18.7105C22.2853 19.5356 21.1662 19.9992 19.9992 19.9992ZM19.9992 23.2992C23.5038 23.2992 26.6487 23.9273 28.7992 26.6685V28.7992H11.1992V26.6685C13.3497 23.9262 16.4946 23.2992 19.9992 23.2992Z" fill="#ABABAB"/>
</svg>
