<svg width="14" height="14" viewBox="0 0 14 14" fill="none" xmlns="http://www.w3.org/2000/svg">
<path d="M10.9861 14C10.8697 14 10.7589 13.9652 10.6591 13.8898L7.00117 11.1049L3.34319 13.8898C3.14921 14.0348 2.88868 14.0348 2.68916 13.8898C2.49517 13.7447 2.41204 13.4778 2.48964 13.24L3.88634 8.73767L0.228358 5.95276C0.034374 5.80771 -0.048754 5.54083 0.0288397 5.30295C0.100891 5.06507 0.317018 4.90262 0.555342 4.90262H5.07797L6.4746 0.400333C6.54665 0.162455 6.76284 0 7.00117 0C7.23949 0 7.45562 0.162455 7.52767 0.400333L8.92437 4.90262H13.447C13.6853 4.90262 13.9014 5.06507 13.9735 5.30295C14.0455 5.54083 13.968 5.80191 13.774 5.95276L10.116 8.73767L11.5127 13.24C11.5847 13.4778 11.5072 13.7389 11.3132 13.8898C11.219 13.9594 11.1025 14 10.9861 14ZM7.00117 9.80523C7.11756 9.80523 7.22839 9.84001 7.32815 9.91544L9.93312 11.8997L8.93546 8.69124C8.86341 8.45336 8.941 8.19228 9.13498 8.04143L11.7399 6.05719H8.51978C8.28146 6.05719 8.06533 5.89474 7.99328 5.65686L7.00117 2.44839L6.00905 5.65686C5.937 5.89474 5.72088 6.05719 5.48255 6.05719H2.26238L4.86735 8.04143C5.06134 8.18648 5.14447 8.45336 5.06687 8.69124L4.06921 11.8997L6.67418 9.91544C6.77395 9.84581 6.89032 9.80523 7.00117 9.80523Z" fill="#808080"/>
</svg>
