<svg width="30" height="30" viewBox="0 0 30 30" fill="none" xmlns="http://www.w3.org/2000/svg">
<rect width="30" height="30" rx="15" fill="#E6E6E6"/>
<path d="M19.5982 19.9998H17.4516C17.2301 19.9998 17.0488 19.8083 17.0488 19.5743V10.4255C17.0488 10.1915 17.2301 10 17.4516 10H19.5982C19.8197 10 20.0009 10.1915 20.0009 10.4255V19.5743C20.0009 19.8126 19.8197 19.9998 19.5982 19.9998ZM17.8503 19.1488H19.1914V10.851H17.8503V19.1488Z" fill="#4E4E4E"/>
<path d="M16.0728 19.9992H13.9262C13.7047 19.9992 13.5234 19.8077 13.5234 19.5737V15.6716C13.5234 15.4376 13.7047 15.2461 13.9262 15.2461H16.0728C16.2943 15.2461 16.4755 15.4376 16.4755 15.6716V19.5737C16.4755 19.812 16.2943 19.9992 16.0728 19.9992ZM14.3249 19.1481H15.666V16.0971H14.3249V19.1481Z" fill="#4E4E4E"/>
<path d="M12.5493 19.998H10.4027C10.1812 19.998 10 19.8065 10 19.5725V13.7556C10 13.5216 10.1812 13.3301 10.4027 13.3301H12.5493C12.7708 13.3301 12.9521 13.5216 12.9521 13.7556V19.5725C12.9521 19.8108 12.7708 19.998 12.5493 19.998ZM10.8014 19.147H12.1426V14.1811H10.8014V19.147Z" fill="#4E4E4E"/>
</svg>
