<svg width="21" height="15" viewBox="0 0 21 15" fill="none" xmlns="http://www.w3.org/2000/svg">
<path d="M3.68724 3.18493C3.51556 3.18493 3.35049 3.11824 3.21843 2.99158L2.17519 1.93833L1.13195 2.99158C0.874436 3.25156 0.458455 3.25156 0.200945 2.99158C-0.056565 2.73159 -0.056565 2.31167 0.200945 2.05168L1.71299 0.525068C1.9705 0.265081 2.39308 0.265081 2.64399 0.525068L4.15604 2.05168C4.41355 2.31167 4.41355 2.73159 4.15604 2.99158C4.02398 3.11824 3.85231 3.18493 3.68724 3.18493Z" fill="#491DC5"/>
<path d="M2.17591 6.49149C1.81275 6.49149 1.51562 6.1915 1.51562 5.82486V1.41175C1.51562 1.0451 1.81275 0.745117 2.17591 0.745117C2.53906 0.745117 2.83619 1.0451 2.83619 1.41175V5.82486C2.83619 6.1915 2.53906 6.49149 2.17591 6.49149Z" fill="#491DC5"/>
<path d="M2.17398 14.9974C2.00231 14.9974 1.83723 14.9307 1.70518 14.8041L0.193133 13.2775C-0.0643776 13.0176 -0.0643776 12.5976 0.193133 12.3376C0.450643 12.0776 0.873216 12.0776 1.12412 12.3376L2.16737 13.3908L3.21062 12.3376C3.46813 12.0776 3.88411 12.0776 4.14162 12.3376C4.39913 12.5976 4.39913 13.0176 4.14162 13.2775L2.62957 14.8041C2.51072 14.9307 2.33905 14.9974 2.17398 14.9974Z" fill="#491DC5"/>
<path d="M2.17395 14.5774C1.8108 14.5774 1.51367 14.2774 1.51367 13.9108V9.49769C1.51367 9.13104 1.8108 8.83105 2.17395 8.83105C2.53711 8.83105 2.83424 9.13104 2.83424 9.49769V13.9108C2.83424 14.2841 2.53711 14.5774 2.17395 14.5774Z" fill="#491DC5"/>
<path d="M20.0319 14.9996H6.9568C6.42412 14.9996 5.98828 14.5596 5.98828 14.0218C5.98828 13.484 6.42412 13.0439 6.9568 13.0439H20.0319C20.5646 13.0439 21.0004 13.484 21.0004 14.0218C21.0004 14.5596 20.5646 14.9996 20.0319 14.9996Z" fill="#491DC5"/>
<path d="M20.0319 8.47814H6.9568C6.42412 8.47814 5.98828 8.03811 5.98828 7.5003C5.98828 6.96249 6.42412 6.52246 6.9568 6.52246H20.0319C20.5646 6.52246 21.0004 6.96249 21.0004 7.5003C21.0004 8.03811 20.5646 8.47814 20.0319 8.47814Z" fill="#491DC5"/>
<path d="M20.0319 1.95568H6.9568C6.42412 1.95568 5.98828 1.51565 5.98828 0.977838C5.98828 0.440027 6.42412 0 6.9568 0H20.0319C20.5646 0 21.0004 0.440027 21.0004 0.977838C21.0004 1.51565 20.5646 1.95568 20.0319 1.95568Z" fill="#491DC5"/>
</svg>
