<svg width="490" height="460" viewBox="0 0 490 460" fill="none" xmlns="http://www.w3.org/2000/svg">
<path d="M474.783 39.7789L490 0L3.05176e-05 -2.14116e-05L15.2174 39.7789L474.783 39.7789Z" fill="#BFBEBE"/>
<path d="M461.086 86.7476L474.781 46.9688L15.216 46.9687L28.9116 86.7476L461.086 86.7476Z" fill="#BFC3AD"/>
<path d="M431.616 180.681L444.348 140.902L42.6085 140.902L55.3397 180.681L431.616 180.681Z" fill="#C0CD8C"/>
<path d="M417.366 227.646L429.133 187.867L57.8285 187.867L69.5952 227.646L417.366 227.646Z" fill="#C1D27C"/>
<path d="M403.048 274.615L416.955 234.836L69.9986 234.836L82.3768 274.615L403.048 274.615Z" fill="#C1D76B"/>
<path d="M388.043 321.58L401.738 281.801L85.2166 281.801L97.3904 321.58L388.043 321.58Z" fill="#C2DC5B"/>
<path d="M375.869 368.546L389.564 328.768L100.434 328.768L112.608 367.931L375.869 368.546Z" fill="#C2E14A"/>
<path d="M445.873 133.714L459.568 93.9355L27.3944 93.9355L41.0901 133.714L445.873 133.714Z" fill="#C0C89D"/>
<path d="M363.693 414.332L375.867 375.734L114.128 375.734L126.302 414.332L363.693 414.332Z" fill="#C3E63A"/>
<path d="M351.903 460.001L362.867 421.322L127.137 421.322L138.101 460.001L351.903 460.001Z" fill="#C3EB29"/>
</svg>
