<svg width="20" height="20" viewBox="0 0 20 20" fill="none" xmlns="http://www.w3.org/2000/svg">
<path fill-rule="evenodd" clip-rule="evenodd" d="M0 10C0 4.47715 4.47715 0 10 0C15.5229 0 20 4.47715 20 10C20 15.5229 15.5229 20 10 20C4.47715 20 0 15.5229 0 10ZM1.9998 10.0005C1.9998 14.4188 5.58152 18.0005 9.9998 18.0005C14.4181 18.0005 17.9998 14.4188 17.9998 10.0005C17.9998 5.58222 14.4181 2.0005 9.9998 2.0005C5.58152 2.0005 1.9998 5.58222 1.9998 10.0005Z" fill="#E6E6E6"/>
<path fill-rule="evenodd" clip-rule="evenodd" d="M10.8836 6.84672C10.3526 6.84672 9.922 6.43361 9.922 5.92384C9.922 5.41423 10.3526 5.00111 10.8836 5.00111C11.4145 5.00111 11.8451 5.41423 11.8451 5.92384C11.8451 6.43361 11.4145 6.84672 10.8836 6.84672ZM10.4235 13.9957C10.058 14.054 9.33086 14.2001 8.96161 14.2295C8.64909 14.2544 8.35396 14.0825 8.17419 13.836C7.99391 13.5896 7.9508 13.2743 8.05781 12.9912L9.51182 9.15389H8.00004C7.99885 8.35431 8.6237 7.76637 9.42288 7.54067C9.80423 7.4329 10.515 7.28571 10.8846 7.30811C11.1061 7.32169 11.492 7.45514 11.6718 7.7016C11.8523 7.94807 11.8954 8.26355 11.7884 8.54648L10.3343 12.3837H11.8456C11.8459 13.1825 11.2443 13.8643 10.4235 13.9957Z" fill="#E6E6E6"/>
</svg>
