<svg width="16" height="17" viewBox="0 0 16 17" fill="none" xmlns="http://www.w3.org/2000/svg">
<path d="M11.9272 13.5163C11.7797 13.5163 11.6392 13.4741 11.5128 13.3828C11.1968 13.1511 11.1336 12.7157 11.3583 12.3996L14.4274 8.17875L11.3583 3.95786C11.1336 3.64182 11.1968 3.20642 11.5128 2.97465C11.8289 2.74289 12.2643 2.8131 12.4961 3.12914L15.8672 7.76437C16.0428 8.01017 16.0428 8.34732 15.8672 8.59313L12.4961 13.2284C12.3556 13.418 12.1449 13.5163 11.9272 13.5163Z" fill="#F2EEE8"/>
<path d="M15.2969 8.88118H6.58122C6.19495 8.88118 5.87891 8.56514 5.87891 8.17887C5.87891 7.7926 6.19495 7.47656 6.58122 7.47656H15.2969C15.6832 7.47656 15.9992 7.7926 15.9992 8.17887C15.9992 8.56514 15.6832 8.88118 15.2969 8.88118Z" fill="#F2EEE8"/>
<path d="M0.702309 16.3638C0.316039 16.3638 0 16.0478 0 15.6615V0.70231C0 0.316039 0.316039 0 0.702309 0C1.08858 0 1.40462 0.316039 1.40462 0.70231V15.6615C1.40462 16.0478 1.08858 16.3638 0.702309 16.3638Z" fill="#F2EEE8"/>
<path d="M10.0992 16.3617H0.70231C0.316039 16.3617 0 16.0456 0 15.6593C0 15.2731 0.316039 14.957 0.70231 14.957H10.0992C10.4855 14.957 10.8015 15.2731 10.8015 15.6593C10.8015 16.0456 10.4925 16.3617 10.0992 16.3617Z" fill="#F2EEE8"/>
<path d="M10.0992 1.40462H0.70231C0.316039 1.40462 0 1.08858 0 0.702309C0 0.316039 0.316039 0 0.70231 0H10.0992C10.4855 0 10.8015 0.316039 10.8015 0.702309C10.8015 1.0956 10.4925 1.40462 10.0992 1.40462Z" fill="#F2EEE8"/>
</svg>
