<svg width="21" height="21" viewBox="0 0 21 21" fill="none" xmlns="http://www.w3.org/2000/svg">
<path d="M10.9527 10.4359C8.75429 10.4359 6.9707 8.65275 6.9707 6.45526C6.9707 4.25776 8.75429 2.47461 10.9527 2.47461C13.151 2.47461 14.9346 4.25776 14.9346 6.45526C14.9346 8.65275 13.151 10.4359 10.9527 10.4359ZM10.9527 3.9544C9.67512 3.9544 8.62984 5.07905 8.62984 6.45526C8.62984 7.83147 9.67512 8.95611 10.9527 8.95611C12.2302 8.95611 13.2754 7.83147 13.2754 6.45526C13.2754 5.07905 12.2302 3.9544 10.9527 3.9544Z" fill="#020202"/>
<path d="M16.3448 19.1937H5.56053C5.16985 19.1937 4.85288 18.8972 4.82339 18.5211L4.5875 15.1068C4.49905 13.8482 5.49417 12.4015 6.76204 11.9458C9.46734 10.991 12.4454 10.9982 15.1433 11.9458C16.4186 12.4088 17.4137 13.8554 17.3179 15.1141L17.082 18.5283C17.0598 18.9044 16.7355 19.1937 16.3448 19.1937ZM6.25344 17.747H15.6593L15.851 15.0055C15.8878 14.4413 15.3644 13.5589 14.642 13.2985C12.2832 12.4666 9.64425 12.4666 7.27067 13.2985C6.56302 13.5589 6.02493 14.4413 6.06916 15.0055L6.25344 17.747Z" fill="#020202"/>
</svg>
