<svg width="14" height="14" viewBox="0 0 14 14" fill="none" xmlns="http://www.w3.org/2000/svg">
<path d="M13.3846 2.74582H0.615385C0.276923 2.74582 0 2.48309 0 2.16197C0 1.84086 0.276923 1.57812 0.615385 1.57812H13.3846C13.7231 1.57812 14 1.84086 14 2.16197C14 2.48893 13.7231 2.74582 13.3846 2.74582Z" fill="#DA5B49"/>
<path d="M8.58466 2.39961C8.43081 1.68731 7.76623 1.17354 6.99699 1.17354C6.22776 1.17354 5.56314 1.68731 5.40929 2.39961L4.20312 2.16605C4.47389 0.91078 5.64315 0 6.99699 0C8.34469 0 9.52006 0.91078 9.79083 2.16605L8.58466 2.39961Z" fill="#DA5B49"/>
<path d="M2.8499 14.0001C2.20375 14.0001 1.66837 13.5038 1.62529 12.8674L0.985305 2.74929C0.966844 2.42817 1.22531 2.15377 1.56377 2.13041C1.91454 2.10706 2.19761 2.35812 2.21607 2.67923L2.85606 12.7973L11.1515 12.8324L11.7853 2.67923C11.8038 2.35812 12.0991 2.1129 12.4376 2.13041C12.7761 2.14793 13.0345 2.42817 13.0161 2.74929L12.3761 12.8674C12.333 13.5038 11.7976 14.0001 11.1515 14.0001H2.8499Z" fill="#DA5B49"/>
<path d="M4.66338 11.8572C4.33722 11.8572 4.06645 11.6178 4.04799 11.3084L3.6357 4.34895C3.61723 4.02783 3.8757 3.7534 4.21416 3.73588C4.55262 3.71253 4.84184 3.96358 4.86031 4.2847L5.2726 11.2442C5.29106 11.5653 5.0326 11.8397 4.69414 11.8572C4.68799 11.8572 4.67569 11.8572 4.66338 11.8572Z" fill="#DA5B49"/>
<path d="M9.33507 11.8572C9.32276 11.8572 9.31045 11.8572 9.29814 11.8572C8.95968 11.8397 8.70122 11.5653 8.71968 11.2442L9.13198 4.2847C9.15044 3.96358 9.44582 3.71253 9.77812 3.73588C10.1166 3.7534 10.375 4.02783 10.3566 4.34895L9.94429 11.3084C9.92583 11.6178 9.65507 11.8572 9.33507 11.8572Z" fill="#DA5B49"/>
<path d="M7.00406 11.8576C6.66559 11.8576 6.38867 11.5949 6.38867 11.2738V4.31432C6.38867 3.9932 6.66559 3.73047 7.00406 3.73047C7.34252 3.73047 7.61944 3.9932 7.61944 4.31432V11.2738C7.61944 11.5949 7.34252 11.8576 7.00406 11.8576Z" fill="#DA5B49"/>
</svg>
