<svg width="20" height="28" viewBox="0 0 20 28" fill="none" xmlns="http://www.w3.org/2000/svg">
<path d="M8.98521 27.1674C10.22 27.1674 11.2302 26.1572 11.2302 24.9225H6.74023C6.74023 26.1684 7.75047 27.1674 8.98521 27.1674Z" fill="white"/>
<path d="M10.1078 7.05238V5.81767C10.1078 5.21152 9.6139 4.71765 9.00776 4.71765C8.40161 4.71765 7.90774 5.21152 7.90774 5.81767V7.05238C4.09128 7.57995 1.12786 10.8577 1.12786 14.8313V19.9835L0.869711 20.2416C-0.196654 21.2743 -0.0507795 22.1611 0.117594 22.5989C0.252293 22.9469 0.746226 23.755 2.26159 23.7663H15.7202C17.2244 23.7663 17.7183 22.9581 17.8642 22.6101C18.0438 22.1724 18.1785 21.2856 17.1121 20.2529L16.8427 19.9835V14.8425C16.8427 10.8688 13.913 7.6024 10.1078 7.05238ZM2.77789 21.4988L3.37284 20.9152V14.8201C3.37284 11.722 5.88722 9.20761 8.98529 9.20761C12.0834 9.20761 14.5977 11.722 14.5977 14.8201V20.9039L15.2039 21.4988H2.77789Z" fill="white"/>
<ellipse cx="15.6194" cy="9.09833" rx="4.38068" ry="4.38068" fill="#FF7B31"/>
<path d="M17.3722 12H13.5962V11.416L15.0922 9.904C15.3802 9.616 15.6228 9.36 15.8202 9.136C16.0175 8.912 16.1668 8.69333 16.2682 8.48C16.3695 8.26133 16.4202 8.024 16.4202 7.768C16.4202 7.45333 16.3268 7.216 16.1402 7.056C15.9535 6.89067 15.7108 6.808 15.4122 6.808C15.1348 6.808 14.8895 6.856 14.6762 6.952C14.4682 7.048 14.2548 7.18133 14.0362 7.352L13.6602 6.88C13.8095 6.752 13.9722 6.63733 14.1482 6.536C14.3295 6.43467 14.5242 6.35467 14.7322 6.296C14.9455 6.23733 15.1722 6.208 15.4122 6.208C15.7695 6.208 16.0762 6.26933 16.3322 6.392C16.5882 6.51467 16.7855 6.69067 16.9242 6.92C17.0682 7.144 17.1402 7.41333 17.1402 7.728C17.1402 7.952 17.1055 8.16533 17.0362 8.368C16.9668 8.56533 16.8682 8.76 16.7402 8.952C16.6122 9.144 16.4575 9.33867 16.2762 9.536C16.0948 9.73333 15.8948 9.93867 15.6762 10.152L14.4842 11.328V11.36H17.3722V12Z" fill="white"/>
</svg>
