<svg width="50" height="50" viewBox="0 0 50 50" fill="none" xmlns="http://www.w3.org/2000/svg">
<circle cx="25" cy="25" r="25" fill="#231F20"/>
<path d="M24.9998 35.8334C23.5012 35.8334 22.0929 35.549 20.7748 34.9803C19.4568 34.4115 18.3103 33.6397 17.3353 32.6647C16.3603 31.6897 15.5884 30.5431 15.0196 29.2251C14.4509 27.907 14.1665 26.4987 14.1665 25.0001C14.1665 23.5015 14.4509 22.0931 15.0196 20.7751C15.5884 19.457 16.3603 18.3105 17.3353 17.3355C18.3103 16.3605 19.4568 15.5886 20.7748 15.0199C22.0929 14.4511 23.5012 14.1667 24.9998 14.1667C26.4984 14.1667 27.9068 14.4511 29.2248 15.0199C30.5429 15.5886 31.6894 16.3605 32.6644 17.3355C33.6394 18.3105 34.4113 19.457 34.98 20.7751C35.5488 22.0931 35.8332 23.5015 35.8332 25.0001C35.8332 26.4987 35.5488 27.907 34.98 29.2251C34.4113 30.5431 33.6394 31.6897 32.6644 32.6647C31.6894 33.6397 30.5429 34.4115 29.2248 34.9803C27.9068 35.549 26.4984 35.8334 24.9998 35.8334ZM23.8353 34.1813V31.9605C23.2033 31.9605 22.6707 31.7258 22.2373 31.2563C21.804 30.7869 21.5873 30.2362 21.5873 29.6042V28.4126L16.0353 22.8605C15.945 23.2216 15.8818 23.5782 15.8457 23.9303C15.8096 24.2824 15.7915 24.639 15.7915 25.0001C15.7915 27.3473 16.5544 29.3966 18.08 31.148C19.6057 32.8994 21.5241 33.9105 23.8353 34.1813ZM31.7978 31.2563C32.5922 30.3897 33.1925 29.4192 33.5988 28.3449C34.005 27.2706 34.2082 26.1556 34.2082 25.0001C34.2082 23.0862 33.6846 21.3483 32.6373 19.7865C31.5901 18.2247 30.1908 17.0827 28.4394 16.3605V16.848C28.4394 17.4799 28.2228 18.0306 27.7894 18.5001C27.3561 18.9695 26.8234 19.2042 26.1915 19.2042H23.8353V21.5605C23.8353 21.8674 23.7134 22.1202 23.4696 22.3188C23.2259 22.5174 22.9505 22.6167 22.6436 22.6167H20.3957V25.0001H27.3832C27.6901 25.0001 27.9429 25.1174 28.1415 25.3522C28.3401 25.5869 28.4394 25.8577 28.4394 26.1647V29.6042H29.604C30.1276 29.6042 30.588 29.7577 30.9853 30.0647C31.3825 30.3716 31.6533 30.7688 31.7978 31.2563Z" fill="white"/>
</svg>
