<svg width="120" height="120" viewBox="0 0 120 120" fill="none" xmlns="http://www.w3.org/2000/svg">
<path fill-rule="evenodd" clip-rule="evenodd" d="M60 0C26.8629 1.44847e-06 0 26.8629 0 60C1.44847e-06 93.1371 26.8629 120 60 120C93.1371 120 120 93.1371 120 60C120 26.8629 93.1371 2.62268e-06 60 2.62268e-06V0ZM85.803 45.6613L58.383 81.6613C57.2502 83.1328 55.5 83.9968 53.643 84.0013C51.7963 84.0112 50.0479 83.1702 48.903 81.7213L34.263 63.0613C32.2251 60.4435 32.6952 56.6693 35.313 54.6313C37.9308 52.5934 41.705 53.0635 43.743 55.6813L53.523 68.1613L76.203 38.1613C78.2244 35.5103 82.012 35 84.663 37.0213C87.314 39.0427 87.8244 42.8303 85.803 45.4813V45.6613Z" fill="#929292"/>
</svg>
