<svg width="15" height="15" viewBox="0 0 15 15" fill="none" xmlns="http://www.w3.org/2000/svg">
<path fill-rule="evenodd" clip-rule="evenodd" d="M0 7.5C0 3.35786 3.35786 0 7.5 0C11.6421 0 15 3.35786 15 7.5C15 11.6421 11.6421 15 7.5 15C3.35786 15 0 11.6421 0 7.5ZM1.5 7.50037C1.5 10.8141 4.18629 13.5004 7.5 13.5004C10.8137 13.5004 13.5 10.8141 13.5 7.50037C13.5 4.18666 10.8137 1.50037 7.5 1.50037C4.18629 1.50037 1.5 4.18666 1.5 7.50037Z" fill="white"/>
<path fill-rule="evenodd" clip-rule="evenodd" d="M8.16258 5.1347C7.76435 5.1347 7.44141 4.82486 7.44141 4.44253C7.44141 4.06033 7.76435 3.75049 8.16258 3.75049C8.5608 3.75049 8.88375 4.06033 8.88375 4.44253C8.88375 4.82486 8.5608 5.1347 8.16258 5.1347ZM7.81759 10.4964C7.54346 10.5402 6.99814 10.6497 6.7212 10.6718C6.48682 10.6904 6.26547 10.5615 6.13064 10.3767C5.99543 10.1918 5.9631 9.95532 6.04336 9.743L7.13387 6.86505H6.00003C5.99914 6.26537 6.46778 5.82441 7.06716 5.65514C7.35317 5.57431 7.88622 5.46391 8.16342 5.48072C8.32956 5.4909 8.61902 5.59099 8.75385 5.77584C8.88919 5.96068 8.92152 6.19729 8.84126 6.40949L7.75075 9.28744H8.8842C8.88446 9.88651 8.4332 10.3979 7.81759 10.4964Z" fill="white"/>
</svg>
