<svg width="18" height="18" viewBox="0 0 18 18" fill="none" xmlns="http://www.w3.org/2000/svg">
<path d="M7.95887 14.9654C4.02008 14.9654 0.813083 11.7584 0.805908 7.81961C0.805908 3.87364 4.0129 0.666672 7.95887 0.666672C11.8977 0.666672 15.1118 3.87364 15.1118 7.81961C15.1118 11.7584 11.9048 14.9654 7.95887 14.9654ZM7.95887 2.10157C4.80927 2.10157 2.2408 4.67001 2.2408 7.81961C2.2408 10.9692 4.80209 13.5305 7.95887 13.5305C11.1085 13.5305 13.6769 10.9692 13.6769 7.81243C13.6769 4.66283 11.1156 2.10157 7.95887 2.10157Z" fill="#020202"/>
<path d="M16.482 17.3333C16.2955 17.3333 16.1161 17.2616 15.9726 17.1253L11.9765 13.1291C11.6967 12.8493 11.6967 12.3973 11.9765 12.1175C12.2563 11.8377 12.7083 11.8377 12.9881 12.1175L16.9842 16.1137C17.2641 16.3935 17.2641 16.8455 16.9842 17.1253C16.8479 17.2616 16.6686 17.3333 16.482 17.3333Z" fill="#020202"/>
</svg>
