<svg width="16" height="17" viewBox="0 0 16 17" fill="none" xmlns="http://www.w3.org/2000/svg">
<path d="M6.98377 13.9605C3.13814 13.9605 0.00700478 10.8294 0 6.98375C0 3.13112 3.13114 0 6.98377 0C10.8294 0 13.9675 3.13112 13.9675 6.98375C13.9675 10.8294 10.8364 13.9605 6.98377 13.9605ZM6.98377 1.40096C3.90867 1.40096 1.40096 3.90865 1.40096 6.98375C1.40096 10.0588 3.90166 12.5596 6.98377 12.5596C10.0589 12.5596 12.5666 10.0588 12.5666 6.97674C12.5666 3.90164 10.0659 1.40096 6.98377 1.40096Z" fill="#C4C4C4"/>
<path d="M3.06181 6.97585H2.36133C2.36133 4.42611 4.43475 2.3457 6.9915 2.3457V3.04618C4.82002 3.05319 3.06181 4.81138 3.06181 6.97585Z" fill="#C4C4C4"/>
<path d="M15.3031 16.27C15.121 16.27 14.9459 16.2 14.8058 16.0669L10.9041 12.1652C10.6309 11.8921 10.6309 11.4507 10.9041 11.1775C11.1773 10.9044 11.6186 10.9044 11.8918 11.1775L15.7935 15.0792C16.0666 15.3524 16.0666 15.7937 15.7935 16.0669C15.6604 16.2 15.4852 16.27 15.3031 16.27Z" fill="#C4C4C4"/>
</svg>
